In Manhattan, Detective Frank Keller is an efficient and veteran cop with twenty years on the force, who is lonely and misses his ex-wife Denise. She left him to live with his colleague from the same precinct Gruber. When a killer kills his victim with a shot on the neck and leaves a single playing "Sea of Love", Frank is in charge of the investigation. Detective Sherman, from a district outside Manhattan, joins Frank when a second victim is killed in the same MO. They find that both victims have written poetry in the lonely hearts column of the single magazine "New York Weekly". When there is a third case, Frank convinces his chief to write for the magazine and work undercover investigating the women that reply the advertisement. Frank falls in love for the prime suspect, the manager of a shoe store Helen Cruger, jeopardizing his investigation.


General
Complete name                    : H:\Movies\Sea.Of.Love.[1989].DvdRip.XviD-Knã\Sea.Of.Love.[1989].DvdRip.XviD-Knã.avi
Format                           : AVI
Format/Info                      : Audio Video Interleave
File size                        : 1.09 GiB
Duration                         : 1h 48mn
Overall bit rate                 : 1 448 Kbps
Writing application              : VirtualDubMod 1.5.4.1 (build 2178/release)
Writing library                  : VirtualDubMod build 2178/release

Video
ID                               : 0
Format                           : MPEG-4 Visual
Format profile                   : Advanced Simple@L5
Format settings, BVOP            : Yes
Format settings, QPel            : No
Format settings, GMC             : No warppoints
Format settings, Matrix          : Custom
Codec ID                         : XVID
Codec ID/Hint                    : XviD
Duration                         : 1h 48mn
Bit rate                         : 1 249 Kbps
Width                            : 720 pixels
Height                           : 384 pixels
Display aspect ratio             : 1.875
Frame rate                       : 25.000 fps
Color space                      : YUV
Chroma subsampling               : 4:2:0
Bit depth                        : 8 bits
Scan type                        : Progressive
Bits/(Pixel*Frame)               : 0.181
Stream size                      : 967 MiB (86%)
Writing library                  : XviD 1.2.1 (UTC 2008-12-04)

Audio
ID                               : 1
Format                           : AC-3
Format/Info                      : Audio Coding 3
Format profile                   : Dolby Digital
Mode extension                   : CM (complete main)
Codec ID                         : 2000
Duration                         : 1h 48mn
Bit rate mode                    : Constant
Bit rate                         : 192 Kbps
Channel(s)                       : 2 channels
Channel positions                : Front: L R
Sampling rate                    : 48.0 KHz
Bit depth                        : 16 bits
Stream size                      : 149 MiB (13%)
Alignment                        : Aligned on interleaves
Interleave, duration             : 96 ms (2.40 video frames)
Interleave, preload duration     : 96 ms
Language                         : English

